PathFileType	4	(X/Y/Z)	Patient4_TMGait_0pt5_02_right_07.trc.trc
DataRate	CameraRate	NumFrames	NumMarkers	Units	OrigDataRate	OrigDataStartFrame	OrigNumFrames
76.502732240437	76.502732240437	4	33	mm	76.502732240437	71	       141
Frame#	Time	Sacral			L.Shoulder			Chest			R.Shoulder			Neck			R.ASIS			L.ASIS			R.Thigh.Superior			R.Thigh.Lateral			R.Thigh.Inferior			R.Patella			L.Thigh.Superior			L.Thigh.Lateral			L.Thigh.Inferior			L.Patella			L.Shank.Superior			L.Shank.Lateral			L.Shank.Inferior			R.Shank.Superior			R.Shank.Lateral			R.Shank.Inferior			R.Heel			R.Midfoot.Superior			R.Midfoot.Lateral			R.Toe			L.Heel			L.Midfoot.Lateral			L.Midfoot.Superior			L.Toe			L.Elbow			L.Wrist			R.Elbow			R.Wrist			
		X1	Y1	Z1	X2	Y2	Z2	X3	Y3	Z3	X4	Y4	Z4	X5	Y5	Z5	X6	Y6	Z6	X7	Y7	Z7	X8	Y8	Z8	X9	Y9	Z9	X10	Y10	Z10	X11	Y11	Z11	X12	Y12	Z12	X13	Y13	Z13	X14	Y14	Z14	X15	Y15	Z15	X16	Y16	Z16	X17	Y17	Z17	X18	Y18	Z18	X19	Y19	Z19	X20	Y20	Z20	X21	Y21	Z21	X22	Y22	Z22	X23	Y23	Z23	X24	Y24	Z24	X25	Y25	Z25	X26	Y26	Z26	X27	Y27	Z27	X28	Y28	Z28	X29	Y29	Z29	X30	Y30	Z30	X31	Y31	Z31	X32	Y32	Z32	X33	Y33	Z33	

71	10.065000000000	542.294671362762	1007.862253093663	547.940198461057	696.107231873304	1442.316485403386	367.243448423030	821.838162856219	1357.598101247000	503.474328401189	771.666493472305	1424.164097291489	692.767298407023	722.228983113246	1491.842030425915	520.281169355535	777.108311526831	937.438163605817	636.329612274481	733.253893500963	958.103302191505	363.800198329025	777.379467311288	727.354284436828	608.052556625431	676.019876349427	631.431778770940	670.141559233541	735.295729475248	567.832091716593	588.306565517131	719.140949758929	482.495777046813	591.650908719570	806.920883783186	772.833049176489	391.299389478282	755.646708309851	643.195500536597	317.994232964990	859.540907276251	582.915817373066	376.587287124763	887.661854632285	519.917490598064	372.891668801090	874.675711543756	450.191601658732	363.281837989639	815.557372448918	316.600475932554	314.185842423543	909.839571004824	223.470627430395	367.512669247579	682.560683300637	399.312542178540	595.207950026878	602.555521656336	299.862506509543	652.182663925311	637.796002395731	204.360457189973	585.258542790552	493.155473419140	43.908662900620	544.318560520176	664.434871556593	96.230439863382	586.010956548114	574.110965795699	35.998937081408	621.261342963933	782.470577814073	41.404883638285	617.053355695393	837.149404108847	39.506289516770	408.865657580838	909.219510939570	47.978642709346	327.481350882414	975.769728305121	129.133524011059	345.845288972274	1109.999462310581	107.516095940195	318.085362388722	538.913064006841	1123.066318425861	274.974708499267	512.089945184076	862.320383675158	299.292652169559	913.835872578251	1118.193721573522	790.826316411635	1125.982519721685	1216.937872103254	702.443622867017	
72	10.078071428571	542.874867364977	1006.834409075274	546.565654043708	695.796148769229	1441.396767319724	365.809750488413	821.525858967431	1356.977206007187	502.237500396153	770.882970233531	1423.374462012148	691.438433818760	721.511575252257	1490.966082016171	518.963992804051	777.522091589279	936.788971912440	635.658100559777	734.253145727373	956.808997927575	362.917289916002	776.759940162499	726.389678156215	607.604481873545	674.603902126291	630.975079741408	669.593055038920	733.652969613887	566.961864728965	587.928291344047	716.609711800298	481.464936899906	591.178019734544	807.416511558670	770.807112274947	390.169558604572	754.077055703605	640.635386796315	318.469313367441	858.418171236217	580.457185778767	376.090389445916	886.041936152017	517.344827565681	373.085076345174	872.727798959526	447.506733697616	364.155294518629	812.754123025515	313.993419937226	316.180234813315	906.823888960222	220.709882122036	369.418672047799	679.328412023402	398.506697984179	594.890049572830	598.290054037600	299.930282694929	652.037334668654	632.501759741104	203.956666293033	585.173781873984	486.609001313082	44.061941050336	544.424046504280	657.935746704042	96.218895317785	586.125007305362	567.558735745952	35.977442424512	621.305869374867	775.924244769917	41.206771922137	617.134530520186	832.481392424698	38.889558071867	411.506120209525	904.464361400628	45.867250300974	329.941740702016	972.865499353787	125.082336702132	348.353457140986	1106.428116907303	100.268710550434	320.199361331645	539.490845316930	1122.011648097106	272.587685947348	514.997598451962	860.955631692166	296.864722558853	914.528423151169	1117.891734105495	788.672967229465	1125.398145441096	1217.963208027034	698.820463671212	
73	10.091142857143	543.600027404912	1005.722208578775	544.977438997562	695.559226543440	1440.377803824123	364.163571633429	821.250566948541	1356.376968843079	500.897703479491	769.974170213684	1422.614225136368	689.974440006116	720.767596147545	1490.070884950877	517.419878571862	778.051043714785	936.056924878435	634.898038803334	735.534577508113	955.463460339411	361.966566586857	776.402905242900	725.354865999894	607.097724901874	673.474280195120	630.415913246410	668.919322812826	732.341551277488	566.010605548960	587.426623264359	714.397147768120	480.320383486155	590.549684000020	808.101196926808	768.613155444058	389.058286050457	752.744332850029	638.116070134547	318.791718713087	857.304007829496	577.934556478449	375.769465530419	884.338614616417	514.611371544363	373.462526307514	870.621879712410	444.624616258269	365.072663152979	809.584950078670	311.344603274899	317.996093742174	903.092511481630	217.652683964753	371.316368634814	676.370427911530	397.588040454143	594.449896610213	594.236996757171	299.969441242719	651.792314980258	627.315701623593	203.501027175622	585.020128082309	480.073315455157	44.269627829163	544.531650415040	651.450399647815	96.222763438436	586.246825671154	561.016578375132	35.988307994734	621.356317660483	769.384849612566	40.982186583898	617.229444091140	826.443641020927	38.274126576396	413.698904866773	898.573821688972	43.677036149983	332.155591765775	969.052428766404	120.597625638419	351.023156578059	1101.921157366950	92.114500624820	322.779331299240	540.574888817435	1120.621694986097	269.891287857403	518.823370776392	859.232213417899	293.857055829821	914.554436499360	1117.350568947837	786.796045743548	1124.725923156669	1217.740795115000	695.603370962462	
74	10.104214285714	544.432812384971	1004.566709451428	543.188502099238	695.421377588389	1439.287871890084	362.309712437464	821.029307310583	1355.816098937525	499.458791818050	768.975121545550	1421.922399684073	688.376661481199	720.038448871999	1489.191950805145	515.640989527452	778.667802343849	935.255529717926	634.044389046244	737.047339222537	954.121986124906	360.960189017457	776.297131298329	724.272518337012	606.520968850993	672.623335665881	629.771255380211	668.101235841130	731.359530560459	564.992980476021	586.787992014507	712.520583289611	479.065683824089	589.755762036325	808.948918563758	766.327340154646	388.000540668373	751.680818012505	635.752002106604	318.913737715306	856.209483144286	575.458488010485	375.632905625869	882.552486320141	511.861400954253	374.015088751958	868.438878062557	441.709402841589	365.961754747688	806.266283038281	308.774246216155	319.525512726647	898.939703870586	214.502727193985	373.104093809125	673.684967385797	396.575648951252	593.873398142925	590.397512641993	300.003627820466	651.434425780063	622.242580671630	203.020041687560	584.793935569046	473.555510290465	44.573960961924	544.644885992785	644.990387198693	96.250064202822	586.373995959462	554.490085435052	36.055094218605	621.413728075252	762.856611088145	40.724804551869	617.338941053056	819.551117470728	37.718771014383	415.403065937870	892.013843303987	41.563121913885	334.045331861731	964.648229855247	115.986554683779	353.705648438242	1096.821360132900	83.617431247002	325.637900838937	542.184702449142	1118.922523122869	266.919388568033	523.521610374768	857.193143359570	290.304735407842	913.930143194142	1116.589064938254	785.204346475360	1124.020249986727	1216.250735737636	692.832587429241	
